<svg id="Layer_1" data-name="Layer 1" xmlns="http://www.w3.org/2000/svg" viewBox="0 0 248 93"><defs><style>.cls-1{fill:#fff;}.cls-2{fill:none;stroke:#fff;stroke-miterlimit:10;}</style></defs><path class="cls-1" d="M41.809,70.731l.826-47.79H52.959l5.9,30.149,6.312-30.149h9.971l.826,47.79h-7.08L68.124,38.34,62.045,70.731H55.969L49.6,38.1l-.648,32.627Z"/><path class="cls-1" d="M97.68,71.38q-5.428,0-8.435-1.859a9.866,9.866,0,0,1-4.219-5.369,26.31,26.31,0,0,1-1.211-8.525V22.941h9.617V56.984a22.788,22.788,0,0,0,.266,3.481,5.428,5.428,0,0,0,1.179,2.773,3.5,3.5,0,0,0,2.8,1.062,3.578,3.578,0,0,0,2.862-1.062,5.252,5.252,0,0,0,1.152-2.773,25.654,25.654,0,0,0,.234-3.481V22.941h9.617V55.627a26.314,26.314,0,0,1-1.209,8.525,9.869,9.869,0,0,1-4.218,5.369Q103.109,71.38,97.68,71.38Z"/><path class="cls-1" d="M132.9,71.38a15.8,15.8,0,0,1-8.319-1.888,10.506,10.506,0,0,1-4.394-5.4,23.787,23.787,0,0,1-1.328-8.407V37.868a23.553,23.553,0,0,1,1.328-8.378,10.222,10.222,0,0,1,4.394-5.31,16.21,16.21,0,0,1,8.319-1.829,16.293,16.293,0,0,1,8.408,1.858,10.341,10.341,0,0,1,4.426,5.311,23.3,23.3,0,0,1,1.326,8.348V55.686a23.789,23.789,0,0,1-1.326,8.407,10.467,10.467,0,0,1-4.426,5.4A16.092,16.092,0,0,1,132.9,71.38Zm0-7.021a3.865,3.865,0,0,0,2.773-.856,4.292,4.292,0,0,0,1.18-2.3,15.458,15.458,0,0,0,.3-3.1v-22.6a15.022,15.022,0,0,0-.3-3.068,4.286,4.286,0,0,0-1.18-2.272,3.874,3.874,0,0,0-2.773-.855,3.685,3.685,0,0,0-2.654.855,4.272,4.272,0,0,0-1.18,2.272,15.022,15.022,0,0,0-.295,3.068v22.6a17.059,17.059,0,0,0,.266,3.1,4.117,4.117,0,0,0,1.15,2.3A3.771,3.771,0,0,0,132.9,64.359Z"/><path class="cls-1" d="M168.243,71.38q-5.428,0-8.436-1.859a9.866,9.866,0,0,1-4.219-5.369,26.337,26.337,0,0,1-1.211-8.525V22.941H164V56.984a22.788,22.788,0,0,0,.265,3.481,5.437,5.437,0,0,0,1.18,2.773,3.5,3.5,0,0,0,2.8,1.062,3.574,3.574,0,0,0,2.861-1.062,5.252,5.252,0,0,0,1.152-2.773,25.494,25.494,0,0,0,.235-3.481V22.941h9.617V55.627a26.314,26.314,0,0,1-1.209,8.525,9.875,9.875,0,0,1-4.219,5.369Q173.671,71.38,168.243,71.38Z"/><path class="cls-1" d="M194.616,70.731V30.2h-7.375V22.941h24.426V30.2h-7.256V70.731Z"/><rect class="cls-2" x="0.5" y="0.5" width="247" height="92"/></svg>