<svg id="Layer_1" data-name="Layer 1" fill="#fff" xmlns="http://www.w3.org/2000/svg" viewBox="0 0 384 384"><path d="M194.25,384h-4.5c-4.06-2.21-5.68-5.57-5.31-10.2.29-3.56.06-7.16.06-10.83-44.41-2.65-82.38-19-113.52-50.21S23.57,243.61,21,199.5c-3.84,0-7.34-.22-10.8.05-4.62.37-8-1.23-10.2-5.3v-4.5c2.2-4.08,5.58-5.67,10.2-5.31,3.56.28,7.16.06,10.82.06C23.63,140.07,40,102.12,71.24,71S140.42,23.61,184.5,21c0-3.84.23-7.34-.06-10.8-.37-4.63,1.24-8,5.31-10.2h4.5c4.06,2.21,5.67,5.58,5.31,10.2-.29,3.56-.06,7.16-.06,10.81C243.93,23.62,281.88,40,313,71.23s47.37,69.18,50,113.27c3.84,0,7.34.23,10.8-.06,4.63-.37,8,1.25,10.2,5.31v4.5c-2.21,4.05-5.58,5.67-10.2,5.31-3.56-.29-7.16-.06-10.83-.06-2.63,44.42-19,82.38-50.21,113.53s-69.16,47.4-113.26,50c0,3.84-.22,7.34.05,10.8C199.93,378.42,198.3,381.79,194.25,384Zm-9.75-36.23c0-3.35,0-6.45,0-9.55.07-5.22,2.93-8.41,7.49-8.41s7.42,3.18,7.49,8.41c0,3.18,0,6.36,0,9.56,85.92-4.26,146.33-75.77,148-148.28-3.09,0-6.19,0-9.29,0-5.23-.07-8.42-2.94-8.41-7.5s3.19-7.41,8.42-7.48c3.18,0,6.36,0,9.55,0-4.3-86-75.81-146.37-147.94-148a2.12,2.12,0,0,0-.26.68c0,2.87,0,5.74-.09,8.62-.08,5.23-2.93,8.41-7.5,8.41s-7.41-3.2-7.48-8.42c0-3.18,0-6.36,0-9.55-86,4.3-146.34,75.8-148,148.28,3.1,0,6.2,0,9.3,0,5.24.07,8.42,2.92,8.42,7.49s-3.19,7.42-8.42,7.49c-3.17,0-6.35,0-9.54,0C39.93,279.15,104.31,344,184.5,347.77Z"/><path d="M63.92,191.83A128.75,128.75,0,0,1,171.55,66.19a165.78,165.78,0,0,1,18.65-1.61c5.72-.28,9.25,2.74,9.27,7.4s-3.39,7.43-9.22,7.55A112.62,112.62,0,0,0,83,164.23c-16.51,63.87,26.56,129.12,91.65,138.86,62.89,9.41,120-33.34,128.84-96.54.62-4.44.74-9,.95-13.45.24-5.33,3.28-8.76,7.81-8.57s7.2,3.6,7.2,8.78c.06,57-40.72,108.62-96.71,122.41a127.58,127.58,0,0,1-155.7-98.65C65.39,208.78,64.94,200.25,63.92,191.83Z"/><path d="M97.51,192.08A94.49,94.49,0,1,1,192,286.49,94.66,94.66,0,0,1,97.51,192.08Zm94.63-79.57a79.64,79.64,0,0,0-79.63,79.25c-.08,43.78,35.46,79.59,79.16,79.73a79.49,79.49,0,1,0,.47-159Z"/><path d="M216.89,176c-1.86,4.53-3.48,9.18-5.69,13.54-.95,1.87-1.47,2.86-.06,4.8a23.26,23.26,0,0,1,.42,27.64,24,24,0,0,1-25.39,9.52,24.23,24.23,0,0,1-18-21.15c-.5-5,2.18-8.85,6.49-9.35,4.55-.53,7.74,2.28,8.42,7.42.74,5.58,4.43,9,9.33,8.77a9,9,0,0,0,8.44-8.49c.22-4.8-3.35-8.49-8.91-9.19-4.54-.58-7.38-3.43-7.42-7.43s2.81-7,7.66-7.56c4-.44,6.78-2.3,8.14-6.13a8.2,8.2,0,0,0-2.12-8.95,8.38,8.38,0,0,0-9.32-2c-3.38,1.19-4.9,4-5.87,7.25a7,7,0,0,1-6.94,5.27,6.63,6.63,0,0,1-7-4.67,11.59,11.59,0,0,1,0-6.21,23.82,23.82,0,0,1,28.74-16.52,24.14,24.14,0,0,1,18,23.07Z"/></svg>