<svg id="Layer_1" data-name="Layer 1" fill="#fff" xmlns="http://www.w3.org/2000/svg" viewBox="0 0 384 311.1"><path d="M0,172.84c1.75-5.42,2.91-11.12,5.37-16.19C12.05,142.89,23,134,37.83,129.9c.59-.16,1.15-.42,2-.73-7.87-18.2-8.77-36.56-1.58-55A68.72,68.72,0,0,1,65.36,41.09C89,25.56,125.92,24.42,153.13,51c18.42-27.58,43.76-44.78,76.69-49.75a106.06,106.06,0,0,1,65.11,10.64c38.32,19.48,68,64.19,57.95,119.58,4.21,2.75,8.63,5.13,12.47,8.23a49.47,49.47,0,0,1,17.95,31.08,13.16,13.16,0,0,0,.7,2.06v12c-.84,3.37-1.49,6.8-2.56,10.09a50.39,50.39,0,0,1-47.77,35c-20.36.16-40.73,0-61.1,0H268c.66,1.24,1,2.11,1.55,2.88,5.19,7.65,10.35,15.31,15.63,22.9,2,2.88,3,5.79,1.26,9.07s-4.74,4.07-8.23,4c-11.12-.07-22.24,0-33.36,0h-4.49v5.1c0,9.37.05,18.75,0,28.12-.05,6.31-2.63,9-8.86,9q-29.61.09-59.22,0c-6,0-8.68-2.82-8.71-8.8,0-11,0-21.95,0-33.42h-4.21c-11.25,0-22.49,0-33.74,0-3.52,0-6.46-.86-8.16-4.15-1.6-3.14-.73-6,1.19-8.76,5.12-7.39,10.16-14.83,15.23-22.26.67-1,1.26-2,2.18-3.52-1.83-.08-3.14-.19-4.45-.19q-39.54,0-79.09,0C25.59,230,5.67,213.38.62,186.88A5.45,5.45,0,0,0,0,185.59ZM297.92,215v0c12,0,24,.18,36,0,18.06-.34,32.15-13.24,34.84-31.56,2.41-16.45-8.22-33.07-24.59-38.44-7.46-2.45-8.9-5-7.08-12.51a95.36,95.36,0,0,0,.38-43.81c-8.27-37.14-39.15-66.2-76.92-72.36A94.24,94.24,0,0,0,164.66,61.1c-1.4,2.38-1.31,4,0,6.41a65.91,65.91,0,0,1,7.9,31.65c0,4.2-2.47,7.2-6.15,7.75-5.23.79-8.66-2.67-8.84-8.91a54.61,54.61,0,1,0-108.65,9.32c3.73,26.31,25.69,45.76,52.87,46.83,5.51.22,8.72,3.1,8.62,7.75s-3.36,7.38-9,7.22c-19.89-.55-36.56-8.3-49.94-22.93-2.16-2.36-4.12-3.06-7.1-2.53-16,2.89-28.61,17.23-29.3,33.52-.89,21,15,37.67,36.36,37.76,30.5.13,61,0,91.5.11a6.32,6.32,0,0,0,6-3.28q22.59-33.36,45.4-66.57c5.06-7.41,10.31-7.39,15.41.07q22.85,33.42,45.61,66.88A5.75,5.75,0,0,0,260.8,215C273.17,214.91,285.55,215,297.92,215Zm-32.21,38.87L202,160.55l-63.71,93.29c11.05,0,21.27,0,31.49,0,6,0,8.75,2.74,8.78,8.65,0,8.37,0,16.74,0,25.11v8.25h46.82v-4.23c0-9.25,0-18.49,0-27.73,0-7.7,2.39-10.06,10.07-10.06Z"/><path d="M80.36,99.59V77.49c0-5.39,2-9.78,6.78-12.49s9.57-2.19,14.16.7C113.13,73.14,125,80.49,136.78,88c9.42,6,9.39,17.26,0,23.27-11.67,7.45-23.47,14.7-35.17,22.09-4.72,3-9.54,3.67-14.49.84-4.78-2.73-6.73-7.13-6.72-12.53Q80.38,110.64,80.36,99.59ZM95.61,79.84v39.55l31.5-19.76Z"/></svg>