<svg id="Layer_1" data-name="Layer 1" fill="#fff" xmlns="http://www.w3.org/2000/svg" viewBox="0 0 352.26 384"><path d="M154.38,384c-3.36-1.29-6.95-2.18-10-3.93a28,28,0,0,1,13.38-52.23c12.25-.19,24.51-.35,36.75,0S215,334.52,220,345.6c.53,1.17,2.08,2.69,3.16,2.7,15.62.09,31.27.47,46.86-.26,19.73-.91,35.38-17.72,35.78-37.52.17-8.73,0-17.47,0-26.69a47.62,47.62,0,0,1-6.12-.05c-2.81-.39-3.21,1.56-4,3.41a35.85,35.85,0,0,1-34.38,22.06c-15.36-.64-28.33-10.09-33-24.55a44.33,44.33,0,0,1-1.94-12.86c-.19-22.5-.12-45-.08-67.5.05-25.56,21.05-42.17,45.88-36.34.6.14,1.21.24,2,.39,0-10,.73-19.84-.13-29.59-3.55-40.12-32.35-74.41-71.07-85.35C145.16,37.08,86.16,75.9,78.61,135.65c-1.24,9.74-.7,19.71-1,29.57,0,1,.12,1.95.21,3.31C85,166.47,92,166,99,167.88c15.33,4.14,26.56,17.78,26.73,33.65q.39,36.36,0,72.74c-.18,17-12.72,31.29-29.48,34.5a35.87,35.87,0,0,1-39.63-21.44c-1.18-2.83-2.56-3.63-5.47-3.57-8.74.19-17.5.12-26.25.05-15-.12-24.85-9.95-24.91-25,0-13.5,0-27,0-40.5,0-16.42,9.08-25.73,25.56-26.27.6,0,1.2-.1,2.2-.18,0-1.63,0-3.09,0-4.55.16-16.37-.36-32.79.63-49.1,2.27-37.35,17.28-69.2,43.78-95.51,22.59-22.42,49.88-35.83,81.23-41,4.3-.71,8.64-1.15,13-1.72h19.5l7,.88C226.2,5.05,255.2,18.46,279.24,42c27,26.39,42.28,58.51,44.59,96.27,1,16.32.48,32.73.64,49.1,0,1.46,0,2.93,0,4.6,1.11.07,1.83.15,2.55.17,15.84.42,25.19,10,25.21,25.86,0,13.75.07,27.5,0,41.25-.09,14.56-9.93,24.38-24.51,24.62-2.19,0-4.39,0-6.83,0,0,9.57.14,18.57,0,27.55-.5,26.66-22.43,50.13-49,51.6-15.83.87-31.73.39-47.6.41-2.31,0-3.5.59-4.41,2.89-3.49,8.84-10.09,14.34-19.19,16.92a18,18,0,0,0-2,.81Zm154.9-191.92c.08-1.28.18-2.13.18-3,0-13.75.45-27.52-.15-41.24a176,176,0,0,0-3.59-30.05C293.1,60.51,240.39,16.92,182,15.1c-36.1-1.12-68,10-94.83,34.16C60.76,73,45.75,102.88,43.45,138.43c-1.1,17.18-.49,34.48-.64,51.72a9.88,9.88,0,0,0,.43,1.94c2.86,0,5.61-.14,8.34,0,2.55.17,4.07-.42,4.93-3.16a20.59,20.59,0,0,1,3.76-6.85c2-2.42,2.37-5,2.42-7.93C63,160,62.05,145.55,64,131.54c8.6-61.36,65.8-104,127.39-95.7a113.27,113.27,0,0,1,98.09,109.42c.25,10.24,0,20.49.18,30.74a10.61,10.61,0,0,0,1.27,4.49c1.62,3.21,3.43,6.34,5.28,9.44.5.84,1.37,2,2.13,2C301.92,192.2,305.51,192.08,309.28,192.08ZM283.5,237.85h0c0-11.62.1-23.24,0-34.85-.13-12.12-9.29-21.37-20.95-21.4s-21.1,9.41-21.13,21.66q-.1,34.67,0,69.33a24.37,24.37,0,0,0,1.14,7.35c3.23,9.95,13,15.69,23.59,14.06a20.72,20.72,0,0,0,17.29-20.17C283.63,261.84,283.5,249.84,283.5,237.85Zm-214.77-.1c0,11.24,0,22.49,0,33.73a29.28,29.28,0,0,0,.57,6.69c2.54,10.56,12.07,17.1,23,15.94a20.85,20.85,0,0,0,18.49-20.67c.12-23.11.07-46.22,0-69.33,0-12.94-9-22.47-21-22.51s-21,9.48-21.07,22.42C68.69,215.27,68.73,226.51,68.73,237.75ZM53.49,268.83V207.19c-10.43,0-20.65-.2-30.85.09-4.36.12-7.49,3.76-7.54,8.39q-.21,22.31,0,44.61c.06,5.15,3.46,8.24,8.62,8.5,3,.14,6,0,9,.05Zm245.25-.35a23.37,23.37,0,0,0,2.71.33c8.75,0,17.5.09,26.24,0,6.23-.07,9.48-3.31,9.51-9.56q.14-21.18,0-42.37c0-6.35-3.45-9.71-9.78-9.75-8.62-.06-17.24,0-25.86,0a24.51,24.51,0,0,0-2.83.32ZM176,369c5.86,0,11.73.07,17.59,0,7.51-.12,13.19-5.71,13.27-12.9a13,13,0,0,0-13.27-13.27c-11.6-.11-23.21-.09-34.81,0-7.73.06-13.46,5.73-13.45,13.09s5.72,13,13.45,13.09C164.55,369.06,170.29,369,176,369Z"/></svg>